# xmcd
#
# Track frame offsets: 
#        150
#        30819
#        49436
#        78060
#        91921
#        102239
#        112751
#        129510
#        144124
#        158136
#        174478
#        190811
#        208769
#        220984
#        236428
#        250359
#        295044
#        312833
#        335276
#        338961
#
# Disc length: 4578 seconds
#
# Revision: 0
# Processed by: cddbd v1.5.2PL0 Copyright (c) Steve Scherf et al.
# Submitted via: ExactAudioCopy v1.1
#
DISCID=0b11e014
DTITLE=Canned Heat - Uncanned! - Best - Disc 1
DYEAR=1994
DGENRE=Blues
TTITLE0=On The Road Again (alt - 04-67) (stereo)
TTITLE1=Nine Below Zero (stereo)
TTITLE2=TV Mama (stereo)
TTITLE3=Rollin' and Tumblin' (stereo)
TTITLE4=Bullfrog Blues (stereo)
TTITLE5=Evil (stereo)
TTITLE6=Goin' Down Slow (stereo)
TTITLE7=Dust My Broom (stereo)
TTITLE8=Help Me (stereo)
TTITLE9=The Story Of My Life (stereo)
TTITLE10=The Hunter (stereo)
TTITLE11=Whiskey And Wimmen (stereo)
TTITLE12=Shake, Rattle And Roll (stereo)
TTITLE13=Mean Old World (stereo)
TTITLE14=Fannie Mae (stereo)
TTITLE15=Gotta Boogie (The World Boogie) (stereo)
TTITLE16=My Crime (stereo)
TTITLE17=On The Road Again (stereo)
TTITLE18=Levi's (radio spot) (mono)
TTITLE19=Boogie With Canned Heat (radio spot) (mono)
EXTD=
EXTT0=
EXTT1=
EXTT2=
EXTT3=
EXTT4=
EXTT5=
EXTT6=
EXTT7=
EXTT8=
EXTT9=
EXTT10=
EXTT11=
EXTT12=
EXTT13=
EXTT14=
EXTT15=
EXTT16=
EXTT17=
EXTT18=
EXTT19=
PLAYORDER=
